solid OpenSCAD_Model
  facet normal 0 -1 0
    outer loop
      vertex -33.5439 -29 86.813
      vertex -33.3039 -29 95.3853
      vertex -64.5827 -29 89.87
    endloop
  endfacet
  facet normal 0 -1 -0
    outer loop
      vertex -33.3039 -29 95.3853
      vertex -33.5439 -29 86.813
      vertex -31.8452 -29 87.1125
    endloop
  endfacet
  facet normal 0 -1 0
    outer loop
      vertex -64.5827 -29 89.87
      vertex -32.1566 -29 78.9452
      vertex -33.5439 -29 86.813
    endloop
  endfacet
  facet normal 0 -1 0
    outer loop
      vertex -48.7362 -29 0
      vertex -32.1566 -29 78.9452
      vertex -64.5827 -29 89.87
    endloop
  endfacet
  facet normal 0 -1 -0
    outer loop
      vertex -32.1566 -29 78.9452
      vertex -48.7362 -29 0
      vertex -18.2364 -29 0
    endloop
  endfacet
  facet normal 0.852871 -0.499998 0.15038
    outer loop
      vertex -16.8151 0 98.2928
      vertex -29.2957 -24.5162 87.562
      vertex -15.3564 0 90.0199
    endloop
  endfacet
  facet normal 0.852867 -0.500001 0.150392
    outer loop
      vertex -33.3039 -29 95.3853
      vertex -29.2957 -24.5162 87.562
      vertex -16.8151 0 98.2928
    endloop
  endfacet
  facet normal 0.852865 -0.500005 0.150388
    outer loop
      vertex -29.2957 -24.5162 87.562
      vertex -33.3039 -29 95.3853
      vertex -31.8448 -28.9994 87.1126
    endloop
  endfacet
  facet normal 0.812289 -0.565397 0.143227
    outer loop
      vertex -31.8448 -28.9994 87.1126
      vertex -33.3039 -29 95.3853
      vertex -31.8452 -29 87.1125
    endloop
  endfacet
  facet normal 0.852866 0.500005 0.150381
    outer loop
      vertex -32.4538 27.505 95.5352
      vertex -29.2957 24.5162 87.562
      vertex -30.9951 27.505 87.2624
    endloop
  endfacet
  facet normal 0.852869 0.499999 0.150385
    outer loop
      vertex -16.8151 0 98.2928
      vertex -29.2957 24.5162 87.562
      vertex -32.4538 27.505 95.5352
    endloop
  endfacet
  facet normal 0.852871 0.499998 0.15038
    outer loop
      vertex -29.2957 24.5162 87.562
      vertex -16.8151 0 98.2928
      vertex -15.3564 0 90.0199
    endloop
  endfacet
  facet normal -0.173633 1.13539e-05 0.98481
    outer loop
      vertex -35.0096 81.01 95.0846
      vertex -16.8151 55.01 98.2928
      vertex -33.3039 84.01 95.3853
    endloop
  endfacet
  facet normal -0.173665 -1.15125e-05 0.984805
    outer loop
      vertex -16.8151 55.01 98.2928
      vertex -35.0096 81.01 95.0846
      vertex -20.2266 55.01 97.6912
    endloop
  endfacet
  facet normal -0.173648 1.99801e-05 0.984808
    outer loop
      vertex -33.3039 84.01 95.3853
      vertex -64.5757 81.01 89.8713
      vertex -35.0096 81.01 95.0846
    endloop
  endfacet
  facet normal -0.173647 7.72694e-06 0.984808
    outer loop
      vertex -66.2815 84.01 89.5705
      vertex -64.5757 81.01 89.8713
      vertex -33.3039 84.01 95.3853
    endloop
  endfacet
  facet normal -0.173655 3.28054e-06 0.984807
    outer loop
      vertex -80.2215 56.505 87.1125
      vertex -64.5757 81.01 89.8713
      vertex -66.2815 84.01 89.5705
    endloop
  endfacet
  facet normal -0.17364 -6.42623e-06 0.984809
    outer loop
      vertex -64.5757 81.01 89.8713
      vertex -80.2215 56.505 87.1125
      vertex -79.3588 55.01 87.2646
    endloop
  endfacet
  facet normal -0.173633 -7.89573e-06 0.98481
    outer loop
      vertex -80.2215 56.505 87.1125
      vertex -66.2815 84.01 89.5705
      vertex -81.9202 56.505 86.813
    endloop
  endfacet
  facet normal -0.173665 7.23669e-06 0.984805
    outer loop
      vertex -20.2266 55.01 97.6912
      vertex -32.4538 27.505 95.5352
      vertex -16.8151 55.01 98.2928
    endloop
  endfacet
  facet normal -0.173632 -8.08818e-06 0.984811
    outer loop
      vertex -32.4538 27.505 95.5352
      vertex -20.2266 55.01 97.6912
      vertex -35.0096 29.01 95.0846
    endloop
  endfacet
  facet normal -0.173665 -7.23669e-06 0.984805
    outer loop
      vertex -32.4538 27.505 95.5352
      vertex -20.2266 0 97.6912
      vertex -16.8151 0 98.2928
    endloop
  endfacet
  facet normal -0.173627 0 0.984811
    outer loop
      vertex -35.0096 26 95.0846
      vertex -32.4538 27.505 95.5352
      vertex -35.0096 29.01 95.0846
    endloop
  endfacet
  facet normal -0.173632 8.08818e-06 0.984811
    outer loop
      vertex -32.4538 27.505 95.5352
      vertex -35.0096 26 95.0846
      vertex -20.2266 0 97.6912
    endloop
  endfacet
  facet normal -0.17365 0 0.984808
    outer loop
      vertex -35.0096 29.01 95.0846
      vertex -63.7327 27.505 90.0199
      vertex -35.0096 26 95.0846
    endloop
  endfacet
  facet normal -0.173648 -2.85379e-05 0.984808
    outer loop
      vertex -64.5757 29.01 89.8713
      vertex -63.7327 27.505 90.0199
      vertex -35.0096 29.01 95.0846
    endloop
  endfacet
  facet normal -0.1771 -0.00202289 0.984191
    outer loop
      vertex -79.3588 55.01 87.2646
      vertex -63.7327 27.505 90.0199
      vertex -64.5757 29.01 89.8713
    endloop
  endfacet
  facet normal -0.172424 0.000716903 0.985023
    outer loop
      vertex -63.7327 27.505 90.0199
      vertex -79.3588 55.01 87.2646
      vertex -80.2215 56.505 87.1125
    endloop
  endfacet
  facet normal -0.173665 1.15125e-05 0.984805
    outer loop
      vertex -35.0096 -26 95.0846
      vertex -16.8151 0 98.2928
      vertex -20.2266 0 97.6912
    endloop
  endfacet
  facet normal -0.173633 -1.13539e-05 0.98481
    outer loop
      vertex -16.8151 0 98.2928
      vertex -35.0096 -26 95.0846
      vertex -33.3039 -29 95.3853
    endloop
  endfacet
  facet normal -0.173649 -2.02277e-05 0.984808
    outer loop
      vertex -63.7327 -27.505 90.0199
      vertex -33.3039 -29 95.3853
      vertex -35.0096 -26 95.0846
    endloop
  endfacet
  facet normal -0.173648 -1.44708e-05 0.984808
    outer loop
      vertex -33.3039 -29 95.3853
      vertex -63.7327 -27.505 90.0199
      vertex -64.5827 -29 89.87
    endloop
  endfacet
  facet normal -0.173648 -2.85379e-05 0.984808
    outer loop
      vertex -64.5757 -26 89.8713
      vertex -63.7327 -27.505 90.0199
      vertex -35.0096 -26 95.0846
    endloop
  endfacet
  facet normal -0.170686 0.00173751 0.985324
    outer loop
      vertex -79.3715 0 87.2624
      vertex -64.5757 -26 89.8713
      vertex -79.3588 0 87.2646
    endloop
  endfacet
  facet normal -0.17675 -0.00182063 0.984254
    outer loop
      vertex -64.5757 -26 89.8713
      vertex -79.3715 0 87.2624
      vertex -63.7327 -27.505 90.0199
    endloop
  endfacet
  facet normal -0.173648 2.85379e-05 0.984808
    outer loop
      vertex -63.7327 27.505 90.0199
      vertex -64.5757 26 89.8713
      vertex -35.0096 26 95.0846
    endloop
  endfacet
  facet normal -0.17675 0.00182063 0.984254
    outer loop
      vertex -79.3715 0 87.2624
      vertex -64.5757 26 89.8713
      vertex -63.7327 27.505 90.0199
    endloop
  endfacet
  facet normal -0.170686 -0.00173751 0.985324
    outer loop
      vertex -64.5757 26 89.8713
      vertex -79.3715 0 87.2624
      vertex -79.3588 0 87.2646
    endloop
  endfacet
  facet normal 0 1 0
    outer loop
      vertex -20.2495 -26 11.3759
      vertex -64.5757 -26 89.8713
      vertex -35.0096 -26 95.0846
    endloop
  endfacet
  facet normal 0 1 0
    outer loop
      vertex -64.5757 -26 89.8713
      vertex -20.2495 -26 11.3759
      vertex -49.8156 -26 6.16261
    endloop
  endfacet
  facet normal -0.852869 0.5 -0.150384
    outer loop
      vertex -35.0096 -26 95.0846
      vertex -5.46646 0 13.9826
      vertex -20.2495 -26 11.3759
    endloop
  endfacet
  facet normal -0.852869 0.499998 -0.150384
    outer loop
      vertex -5.46646 0 13.9826
      vertex -35.0096 -26 95.0846
      vertex -20.2266 0 97.6912
    endloop
  endfacet
  facet normal -0.852869 -0.5 -0.150384
    outer loop
      vertex -5.46646 0 13.9826
      vertex -35.0096 26 95.0846
      vertex -20.2495 26 11.3759
    endloop
  endfacet
  facet normal -0.852869 -0.499998 -0.150384
    outer loop
      vertex -35.0096 26 95.0846
      vertex -5.46646 0 13.9826
      vertex -20.2266 0 97.6912
    endloop
  endfacet
  facet normal 0.852868 0.500001 0.150384
    outer loop
      vertex -49.8156 -26 6.16261
      vertex -79.3588 0 87.2646
      vertex -64.5757 -26 89.8713
    endloop
  endfacet
  facet normal 0.852868 0.500001 0.150384
    outer loop
      vertex -79.3588 0 87.2646
      vertex -49.8156 -26 6.16261
      vertex -64.5987 0 3.55596
    endloop
  endfacet
  facet normal -0.173649 1.64866e-06 0.984808
    outer loop
      vertex -64.5987 0 3.55596
      vertex -5.46646 0 13.9826
      vertex -20.2495 26 11.3759
    endloop
  endfacet
  facet normal -0.173648 1.44552e-07 0.984808
    outer loop
      vertex -64.5987 0 3.55596
      vertex -20.2495 26 11.3759
      vertex -49.8156 26 6.16261
    endloop
  endfacet
  facet normal -0.173649 -1.64866e-06 0.984808
    outer loop
      vertex -5.46646 0 13.9826
      vertex -64.5987 0 3.55596
      vertex -20.2495 -26 11.3759
    endloop
  endfacet
  facet normal -0.173648 -1.44552e-07 0.984808
    outer loop
      vertex -20.2495 -26 11.3759
      vertex -64.5987 0 3.55596
      vertex -49.8156 -26 6.16261
    endloop
  endfacet
  facet normal 0 -1 0
    outer loop
      vertex -64.5757 26 89.8713
      vertex -20.2495 26 11.3759
      vertex -35.0096 26 95.0846
    endloop
  endfacet
  facet normal -0 -1 0
    outer loop
      vertex -20.2495 26 11.3759
      vertex -64.5757 26 89.8713
      vertex -49.8156 26 6.16261
    endloop
  endfacet
  facet normal 0.852868 -0.500001 0.150384
    outer loop
      vertex -79.3588 0 87.2646
      vertex -49.8156 26 6.16261
      vertex -64.5757 26 89.8713
    endloop
  endfacet
  facet normal 0.852868 -0.500001 0.150384
    outer loop
      vertex -49.8156 26 6.16261
      vertex -79.3588 0 87.2646
      vertex -64.5987 0 3.55596
    endloop
  endfacet
  facet normal 0 -1 0
    outer loop
      vertex -98.8641 -56.505 0
      vertex -81.6802 -56.505 95.3853
      vertex -114.658 -56.505 89.5705
    endloop
  endfacet
  facet normal 0 -1 -0
    outer loop
      vertex -81.6802 -56.505 95.3853
      vertex -98.8641 -56.505 0
      vertex -64.8612 -56.505 0
    endloop
  endfacet
  facet normal 0.852875 -0.49999 0.150381
    outer loop
      vertex -65.1914 -27.505 98.2928
      vertex -64.5827 -29 89.87
      vertex -63.7327 -27.505 90.0199
    endloop
  endfacet
  facet normal 0.852868 -0.500001 0.150383
    outer loop
      vertex -81.6802 -56.505 95.3853
      vertex -64.5827 -29 89.87
      vertex -65.1914 -27.505 98.2928
    endloop
  endfacet
  facet normal 0.852868 -0.5 0.150384
    outer loop
      vertex -64.8612 -56.505 0
      vertex -64.5827 -29 89.87
      vertex -81.6802 -56.505 95.3853
    endloop
  endfacet
  facet normal 0.852868 -0.5 0.150384
    outer loop
      vertex -64.5827 -29 89.87
      vertex -64.8612 -56.505 0
      vertex -48.7362 -29 0
    endloop
  endfacet
  facet normal 0.852869 0.500001 0.15038
    outer loop
      vertex -63.7327 -27.505 90.0199
      vertex -80.8302 0 95.5352
      vertex -65.1914 -27.505 98.2928
    endloop
  endfacet
  facet normal 0.852868 0.500001 0.150382
    outer loop
      vertex -80.8302 0 95.5352
      vertex -63.7327 -27.505 90.0199
      vertex -79.3715 0 87.2624
    endloop
  endfacet
  facet normal -0.852869 -0.499997 -0.150389
    outer loop
      vertex -98.8641 -56.505 0
      vertex -130.297 -29 86.813
      vertex -114.989 -29 0
    endloop
  endfacet
  facet normal -0.852865 -0.500005 -0.150385
    outer loop
      vertex -130.297 -29 86.813
      vertex -98.8641 -56.505 0
      vertex -114.658 -56.505 89.5705
    endloop
  endfacet
  facet normal -0.173628 1.42478e-05 0.984811
    outer loop
      vertex -83.386 53.505 95.0846
      vertex -65.1914 27.505 98.2928
      vertex -81.6802 56.505 95.3853
    endloop
  endfacet
  facet normal -0.173665 -1.21804e-05 0.984805
    outer loop
      vertex -65.1914 27.505 98.2928
      vertex -83.386 53.505 95.0846
      vertex -68.6029 27.505 97.6912
    endloop
  endfacet
  facet normal -0.173649 2.61823e-05 0.984808
    outer loop
      vertex -81.6802 56.505 95.3853
      vertex -112.109 55.01 90.0199
      vertex -83.386 53.505 95.0846
    endloop
  endfacet
  facet normal -0.173648 1.44708e-05 0.984808
    outer loop
      vertex -112.109 55.01 90.0199
      vertex -81.6802 56.505 95.3853
      vertex -112.959 56.505 89.87
    endloop
  endfacet
  facet normal -0.173665 7.86808e-06 0.984805
    outer loop
      vertex -68.6029 27.505 97.6912
      vertex -80.8302 0 95.5352
      vertex -65.1914 27.505 98.2928
    endloop
  endfacet
  facet normal -0.173631 -7.58787e-06 0.984811
    outer loop
      vertex -80.8302 0 95.5352
      vertex -68.6029 27.505 97.6912
      vertex -83.386 1.505 95.0846
    endloop
  endfacet
  facet normal -0.173665 -7.86808e-06 0.984805
    outer loop
      vertex -80.8302 0 95.5352
      vertex -68.6029 -27.505 97.6912
      vertex -65.1914 -27.505 98.2928
    endloop
  endfacet
  facet normal -0.173627 0 0.984811
    outer loop
      vertex -83.386 -1.505 95.0846
      vertex -80.8302 0 95.5352
      vertex -83.386 1.505 95.0846
    endloop
  endfacet
  facet normal -0.173631 7.58787e-06 0.984811
    outer loop
      vertex -80.8302 0 95.5352
      vertex -83.386 -1.505 95.0846
      vertex -68.6029 -27.505 97.6912
    endloop
  endfacet
  facet normal -0.17365 0 0.984807
    outer loop
      vertex -83.386 1.505 95.0846
      vertex -112.109 0 90.0199
      vertex -83.386 -1.505 95.0846
    endloop
  endfacet
  facet normal -0.173649 -2.88669e-05 0.984808
    outer loop
      vertex -112.952 1.505 89.8713
      vertex -112.109 0 90.0199
      vertex -83.386 1.505 95.0846
    endloop
  endfacet
  facet normal -0.166857 0.00398036 0.985973
    outer loop
      vertex -127.748 27.505 87.2624
      vertex -112.952 1.505 89.8713
      vertex -127.735 27.505 87.2646
    endloop
  endfacet
  facet normal -0.176603 -0.00173553 0.984281
    outer loop
      vertex -112.952 1.505 89.8713
      vertex -127.748 27.505 87.2624
      vertex -112.109 0 90.0199
    endloop
  endfacet
  facet normal -0.173665 1.21804e-05 0.984805
    outer loop
      vertex -83.386 -53.505 95.0846
      vertex -65.1914 -27.505 98.2928
      vertex -68.6029 -27.505 97.6912
    endloop
  endfacet
  facet normal -0.173628 -1.42478e-05 0.984811
    outer loop
      vertex -65.1914 -27.505 98.2928
      vertex -83.386 -53.505 95.0846
      vertex -81.6802 -56.505 95.3853
    endloop
  endfacet
  facet normal -0.173649 -2.61023e-05 0.984808
    outer loop
      vertex -112.952 -53.505 89.8713
      vertex -81.6802 -56.505 95.3853
      vertex -83.386 -53.505 95.0846
    endloop
  endfacet
  facet normal -0.173646 3.25066e-06 0.984808
    outer loop
      vertex -112.952 -53.505 89.8713
      vertex -114.658 -56.505 89.5705
      vertex -81.6802 -56.505 95.3853
    endloop
  endfacet
  facet normal -0.173611 2.40529e-05 0.984814
    outer loop
      vertex -128.598 -29 87.1125
      vertex -112.952 -53.505 89.8713
      vertex -127.735 -27.505 87.2646
    endloop
  endfacet
  facet normal -0.173644 2.17506e-06 0.984808
    outer loop
      vertex -112.952 -53.505 89.8713
      vertex -128.598 -29 87.1125
      vertex -114.658 -56.505 89.5705
    endloop
  endfacet
  facet normal -0.173603 2.34344e-05 0.984816
    outer loop
      vertex -114.658 -56.505 89.5705
      vertex -128.598 -29 87.1125
      vertex -130.297 -29 86.813
    endloop
  endfacet
  facet normal -0.173649 2.88669e-05 0.984808
    outer loop
      vertex -112.109 55.01 90.0199
      vertex -112.952 53.505 89.8713
      vertex -83.386 53.505 95.0846
    endloop
  endfacet
  facet normal -0.176603 0.00173553 0.984281
    outer loop
      vertex -127.748 27.505 87.2624
      vertex -112.952 53.505 89.8713
      vertex -112.109 55.01 90.0199
    endloop
  endfacet
  facet normal -0.166857 -0.00398036 0.985973
    outer loop
      vertex -112.952 53.505 89.8713
      vertex -127.748 27.505 87.2624
      vertex -127.735 27.505 87.2646
    endloop
  endfacet
  facet normal -0.173649 2.88669e-05 0.984808
    outer loop
      vertex -112.109 0 90.0199
      vertex -112.952 -1.505 89.8713
      vertex -83.386 -1.505 95.0846
    endloop
  endfacet
  facet normal -0.177178 0.00206805 0.984177
    outer loop
      vertex -112.109 0 90.0199
      vertex -127.735 -27.505 87.2646
      vertex -112.952 -1.505 89.8713
    endloop
  endfacet
  facet normal -0.168681 -0.0029084 0.985666
    outer loop
      vertex -127.735 -27.505 87.2646
      vertex -112.109 0 90.0199
      vertex -128.598 -29 87.1125
    endloop
  endfacet
  facet normal 0 1 0
    outer loop
      vertex -68.6259 -53.505 11.3759
      vertex -112.952 -53.505 89.8713
      vertex -83.386 -53.505 95.0846
    endloop
  endfacet
  facet normal 0 1 0
    outer loop
      vertex -112.952 -53.505 89.8713
      vertex -68.6259 -53.505 11.3759
      vertex -98.192 -53.505 6.16261
    endloop
  endfacet
  facet normal -0.852868 0.500001 -0.150384
    outer loop
      vertex -83.386 -53.505 95.0846
      vertex -53.8428 -27.505 13.9826
      vertex -68.6259 -53.505 11.3759
    endloop
  endfacet
  facet normal -0.852868 0.500001 -0.150384
    outer loop
      vertex -53.8428 -27.505 13.9826
      vertex -83.386 -53.505 95.0846
      vertex -68.6029 -27.505 97.6912
    endloop
  endfacet
  facet normal -0.852868 -0.500001 -0.150384
    outer loop
      vertex -53.8428 -27.505 13.9826
      vertex -83.386 -1.505 95.0846
      vertex -68.6259 -1.505 11.3759
    endloop
  endfacet
  facet normal -0.852868 -0.500001 -0.150384
    outer loop
      vertex -83.386 -1.505 95.0846
      vertex -53.8428 -27.505 13.9826
      vertex -68.6029 -27.505 97.6912
    endloop
  endfacet
  facet normal 0.852869 0.499999 0.150383
    outer loop
      vertex -98.192 -53.505 6.16261
      vertex -127.735 -27.505 87.2646
      vertex -112.952 -53.505 89.8713
    endloop
  endfacet
  facet normal 0.852869 0.499999 0.150383
    outer loop
      vertex -127.735 -27.505 87.2646
      vertex -98.192 -53.505 6.16261
      vertex -112.975 -27.505 3.55596
    endloop
  endfacet
  facet normal -0.173649 1.18115e-06 0.984808
    outer loop
      vertex -112.975 -27.505 3.55596
      vertex -53.8428 -27.505 13.9826
      vertex -68.6259 -1.505 11.3759
    endloop
  endfacet
  facet normal -0.173648 -5.23324e-07 0.984808
    outer loop
      vertex -112.975 -27.505 3.55596
      vertex -68.6259 -1.505 11.3759
      vertex -98.192 -1.505 6.16261
    endloop
  endfacet
  facet normal -0.173649 -1.18115e-06 0.984808
    outer loop
      vertex -53.8428 -27.505 13.9826
      vertex -112.975 -27.505 3.55596
      vertex -68.6259 -53.505 11.3759
    endloop
  endfacet
  facet normal -0.173648 5.23324e-07 0.984808
    outer loop
      vertex -68.6259 -53.505 11.3759
      vertex -112.975 -27.505 3.55596
      vertex -98.192 -53.505 6.16261
    endloop
  endfacet
  facet normal 0 -1 0
    outer loop
      vertex -112.952 -1.505 89.8713
      vertex -68.6259 -1.505 11.3759
      vertex -83.386 -1.505 95.0846
    endloop
  endfacet
  facet normal -0 -1 0
    outer loop
      vertex -68.6259 -1.505 11.3759
      vertex -112.952 -1.505 89.8713
      vertex -98.192 -1.505 6.16261
    endloop
  endfacet
  facet normal 0.852869 -0.499999 0.150383
    outer loop
      vertex -127.735 -27.505 87.2646
      vertex -98.192 -1.505 6.16261
      vertex -112.952 -1.505 89.8713
    endloop
  endfacet
  facet normal 0.852869 -0.499999 0.150383
    outer loop
      vertex -98.192 -1.505 6.16261
      vertex -127.735 -27.505 87.2646
      vertex -112.975 -27.505 3.55596
    endloop
  endfacet
  facet normal 0 -1 0
    outer loop
      vertex -130.297 -29 86.813
      vertex -130.057 -29 95.3853
      vertex -161.335 -29 89.87
    endloop
  endfacet
  facet normal 0 -1 -0
    outer loop
      vertex -130.057 -29 95.3853
      vertex -130.297 -29 86.813
      vertex -128.598 -29 87.1125
    endloop
  endfacet
  facet normal 0 -1 0
    outer loop
      vertex -145.489 -29 0
      vertex -130.297 -29 86.813
      vertex -161.335 -29 89.87
    endloop
  endfacet
  facet normal 0 -1 -0
    outer loop
      vertex -130.297 -29 86.813
      vertex -145.489 -29 0
      vertex -114.989 -29 0
    endloop
  endfacet
  facet normal 0.852861 -0.500005 0.15041
    outer loop
      vertex -130.057 -29 95.3853
      vertex -112.109 0 90.0199
      vertex -113.568 0 98.2928
    endloop
  endfacet
  facet normal 0.852861 -0.500005 0.150411
    outer loop
      vertex -112.109 0 90.0199
      vertex -130.057 -29 95.3853
      vertex -128.598 -29 87.1125
    endloop
  endfacet
  facet normal 0.852861 0.500006 0.15041
    outer loop
      vertex -112.109 0 90.0199
      vertex -129.207 27.505 95.5352
      vertex -113.568 0 98.2928
    endloop
  endfacet
  facet normal 0.852861 0.500005 0.150411
    outer loop
      vertex -129.207 27.505 95.5352
      vertex -112.109 0 90.0199
      vertex -127.748 27.505 87.2624
    endloop
  endfacet
  facet normal -0.173667 -9.50634e-06 0.984804
    outer loop
      vertex -131.762 81.01 95.0846
      vertex -113.568 55.01 98.2928
      vertex -130.057 84.01 95.3853
    endloop
  endfacet
  facet normal -0.17369 -2.59864e-05 0.9848
    outer loop
      vertex -113.568 55.01 98.2928
      vertex -131.762 81.01 95.0846
      vertex -116.979 55.01 97.6912
    endloop
  endfacet
  facet normal -0.173649 -2.0204e-05 0.984808
    outer loop
      vertex -130.057 84.01 95.3853
      vertex -161.328 81.01 89.8713
      vertex -131.762 81.01 95.0846
    endloop
  endfacet
  facet normal -0.17365 -5.64619e-06 0.984807
    outer loop
      vertex -163.034 84.01 89.5705
      vertex -161.328 81.01 89.8713
      vertex -130.057 84.01 95.3853
    endloop
  endfacet
  facet normal -0.173644 -2.17506e-06 0.984808
    outer loop
      vertex -176.974 56.505 87.1125
      vertex -161.328 81.01 89.8713
      vertex -163.034 84.01 89.5705
    endloop
  endfacet
  facet normal -0.173611 -2.40529e-05 0.984814
    outer loop
      vertex -161.328 81.01 89.8713
      vertex -176.974 56.505 87.1125
      vertex -176.111 55.01 87.2646
    endloop
  endfacet
  facet normal -0.173603 -2.34344e-05 0.984816
    outer loop
      vertex -176.974 56.505 87.1125
      vertex -163.034 84.01 89.5705
      vertex -178.673 56.505 86.813
    endloop
  endfacet
  facet normal -0.17369 2.36051e-05 0.9848
    outer loop
      vertex -116.979 55.01 97.6912
      vertex -129.207 27.505 95.5352
      vertex -113.568 55.01 98.2928
    endloop
  endfacet
  facet normal -0.173671 1.50677e-05 0.984804
    outer loop
      vertex -129.207 27.505 95.5352
      vertex -116.979 55.01 97.6912
      vertex -131.762 29.01 95.0846
    endloop
  endfacet
  facet normal -0.17369 -2.36051e-05 0.9848
    outer loop
      vertex -129.207 27.505 95.5352
      vertex -116.979 0 97.6912
      vertex -113.568 0 98.2928
    endloop
  endfacet
  facet normal -0.17368 0 0.984802
    outer loop
      vertex -131.762 26 95.0846
      vertex -129.207 27.505 95.5352
      vertex -131.762 29.01 95.0846
    endloop
  endfacet
  facet normal -0.173671 -1.50677e-05 0.984804
    outer loop
      vertex -129.207 27.505 95.5352
      vertex -131.762 26 95.0846
      vertex -116.979 0 97.6912
    endloop
  endfacet
  facet normal -0.17365 0 0.984807
    outer loop
      vertex -131.762 29.01 95.0846
      vertex -160.485 27.505 90.0199
      vertex -131.762 26 95.0846
    endloop
  endfacet
  facet normal -0.173649 -2.88669e-05 0.984808
    outer loop
      vertex -161.328 29.01 89.8713
      vertex -160.485 27.505 90.0199
      vertex -131.762 29.01 95.0846
    endloop
  endfacet
  facet normal -0.177178 -0.00206805 0.984177
    outer loop
      vertex -176.111 55.01 87.2646
      vertex -160.485 27.505 90.0199
      vertex -161.328 29.01 89.8713
    endloop
  endfacet
  facet normal -0.168681 0.0029084 0.985666
    outer loop
      vertex -160.485 27.505 90.0199
      vertex -176.111 55.01 87.2646
      vertex -176.974 56.505 87.1125
    endloop
  endfacet
  facet normal -0.17369 2.59864e-05 0.9848
    outer loop
      vertex -131.762 -26 95.0846
      vertex -113.568 0 98.2928
      vertex -116.979 0 97.6912
    endloop
  endfacet
  facet normal -0.173667 9.50634e-06 0.984804
    outer loop
      vertex -113.568 0 98.2928
      vertex -131.762 -26 95.0846
      vertex -130.057 -29 95.3853
    endloop
  endfacet
  facet normal -0.173651 1.8785e-05 0.984807
    outer loop
      vertex -160.485 -27.505 90.0199
      vertex -130.057 -29 95.3853
      vertex -131.762 -26 95.0846
    endloop
  endfacet
  facet normal -0.173653 -1.19456e-05 0.984807
    outer loop
      vertex -130.057 -29 95.3853
      vertex -160.485 -27.505 90.0199
      vertex -161.335 -29 89.87
    endloop
  endfacet
  facet normal -0.173649 -2.88669e-05 0.984808
    outer loop
      vertex -161.328 -26 89.8713
      vertex -160.485 -27.505 90.0199
      vertex -131.762 -26 95.0846
    endloop
  endfacet
  facet normal -0.166857 0.00398036 0.985973
    outer loop
      vertex -176.124 0 87.2624
      vertex -161.328 -26 89.8713
      vertex -176.111 0 87.2646
    endloop
  endfacet
  facet normal -0.176603 -0.00173553 0.984281
    outer loop
      vertex -161.328 -26 89.8713
      vertex -176.124 0 87.2624
      vertex -160.485 -27.505 90.0199
    endloop
  endfacet
  facet normal -0.173649 2.88669e-05 0.984808
    outer loop
      vertex -160.485 27.505 90.0199
      vertex -161.328 26 89.8713
      vertex -131.762 26 95.0846
    endloop
  endfacet
  facet normal -0.176603 0.00173553 0.984281
    outer loop
      vertex -176.124 0 87.2624
      vertex -161.328 26 89.8713
      vertex -160.485 27.505 90.0199
    endloop
  endfacet
  facet normal -0.166857 -0.00398036 0.985973
    outer loop
      vertex -161.328 26 89.8713
      vertex -176.124 0 87.2624
      vertex -176.111 0 87.2646
    endloop
  endfacet
  facet normal 0 1 0
    outer loop
      vertex -117.002 -26 11.3759
      vertex -161.328 -26 89.8713
      vertex -131.762 -26 95.0846
    endloop
  endfacet
  facet normal 0 1 0
    outer loop
      vertex -161.328 -26 89.8713
      vertex -117.002 -26 11.3759
      vertex -146.568 -26 6.16261
    endloop
  endfacet
  facet normal -0.852869 0.499999 -0.150383
    outer loop
      vertex -131.762 -26 95.0846
      vertex -102.219 0 13.9826
      vertex -117.002 -26 11.3759
    endloop
  endfacet
  facet normal -0.85287 0.499998 -0.150383
    outer loop
      vertex -102.219 0 13.9826
      vertex -131.762 -26 95.0846
      vertex -116.979 0 97.6912
    endloop
  endfacet
  facet normal -0.852869 -0.499999 -0.150383
    outer loop
      vertex -102.219 0 13.9826
      vertex -131.762 26 95.0846
      vertex -117.002 26 11.3759
    endloop
  endfacet
  facet normal -0.85287 -0.499998 -0.150383
    outer loop
      vertex -131.762 26 95.0846
      vertex -102.219 0 13.9826
      vertex -116.979 0 97.6912
    endloop
  endfacet
  facet normal 0.852869 0.499999 0.150383
    outer loop
      vertex -146.568 -26 6.16261
      vertex -176.111 0 87.2646
      vertex -161.328 -26 89.8713
    endloop
  endfacet
  facet normal 0.852869 0.499999 0.150383
    outer loop
      vertex -176.111 0 87.2646
      vertex -146.568 -26 6.16261
      vertex -161.351 0 3.55596
    endloop
  endfacet
  facet normal -0.173649 1.51509e-06 0.984808
    outer loop
      vertex -161.351 0 3.55596
      vertex -102.219 0 13.9826
      vertex -117.002 26 11.3759
    endloop
  endfacet
  facet normal -0.173648 -1.89386e-07 0.984808
    outer loop
      vertex -161.351 0 3.55596
      vertex -117.002 26 11.3759
      vertex -146.568 26 6.16261
    endloop
  endfacet
  facet normal -0.173649 -1.51509e-06 0.984808
    outer loop
      vertex -102.219 0 13.9826
      vertex -161.351 0 3.55596
      vertex -117.002 -26 11.3759
    endloop
  endfacet
  facet normal -0.173648 1.89386e-07 0.984808
    outer loop
      vertex -117.002 -26 11.3759
      vertex -161.351 0 3.55596
      vertex -146.568 -26 6.16261
    endloop
  endfacet
  facet normal 0 -1 0
    outer loop
      vertex -161.328 26 89.8713
      vertex -117.002 26 11.3759
      vertex -131.762 26 95.0846
    endloop
  endfacet
  facet normal -0 -1 0
    outer loop
      vertex -117.002 26 11.3759
      vertex -161.328 26 89.8713
      vertex -146.568 26 6.16261
    endloop
  endfacet
  facet normal 0.852869 -0.499999 0.150383
    outer loop
      vertex -176.111 0 87.2646
      vertex -146.568 26 6.16261
      vertex -161.328 26 89.8713
    endloop
  endfacet
  facet normal 0.852869 -0.499999 0.150383
    outer loop
      vertex -146.568 26 6.16261
      vertex -176.111 0 87.2646
      vertex -161.351 0 3.55596
    endloop
  endfacet
  facet normal 0 -1 0
    outer loop
      vertex -195.617 -56.505 0
      vertex -178.433 -56.505 95.3853
      vertex -211.41 -56.505 89.5705
    endloop
  endfacet
  facet normal 0 -1 -0
    outer loop
      vertex -178.433 -56.505 95.3853
      vertex -195.617 -56.505 0
      vertex -161.614 -56.505 0
    endloop
  endfacet
  facet normal 0.852869 -0.49999 0.150411
    outer loop
      vertex -161.944 -27.505 98.2928
      vertex -161.335 -29 89.87
      vertex -160.485 -27.505 90.0199
    endloop
  endfacet
  facet normal 0.85286 -0.500005 0.150413
    outer loop
      vertex -178.433 -56.505 95.3853
      vertex -161.335 -29 89.87
      vertex -161.944 -27.505 98.2928
    endloop
  endfacet
  facet normal 0.852862 -0.500012 0.150383
    outer loop
      vertex -161.614 -56.505 0
      vertex -161.335 -29 89.87
      vertex -178.433 -56.505 95.3853
    endloop
  endfacet
  facet normal 0.852869 -0.5 0.150379
    outer loop
      vertex -161.335 -29 89.87
      vertex -161.614 -56.505 0
      vertex -145.489 -29 0
    endloop
  endfacet
  facet normal 0.852861 0.500006 0.15041
    outer loop
      vertex -160.485 -27.505 90.0199
      vertex -177.583 0 95.5352
      vertex -161.944 -27.505 98.2928
    endloop
  endfacet
  facet normal 0.852861 0.500005 0.150411
    outer loop
      vertex -177.583 0 95.5352
      vertex -160.485 -27.505 90.0199
      vertex -176.124 0 87.2624
    endloop
  endfacet
  facet normal -0.852874 -0.49999 -0.150384
    outer loop
      vertex -195.617 -56.505 0
      vertex -227.899 -27.505 86.6631
      vertex -212.618 -27.505 0
    endloop
  endfacet
  facet normal -0.852867 -0.500005 -0.150377
    outer loop
      vertex -227.899 -27.505 86.6631
      vertex -195.617 -56.505 0
      vertex -211.41 -56.505 89.5705
    endloop
  endfacet
  facet normal -0.173618 1.94363e-05 0.984813
    outer loop
      vertex -180.139 53.505 95.0846
      vertex -161.944 27.505 98.2928
      vertex -178.433 56.505 95.3853
    endloop
  endfacet
  facet normal -0.17364 2.95736e-06 0.984809
    outer loop
      vertex -161.944 27.505 98.2928
      vertex -180.139 53.505 95.0846
      vertex -165.356 27.505 97.6912
    endloop
  endfacet
  facet normal -0.173649 3.76789e-05 0.984808
    outer loop
      vertex -178.433 56.505 95.3853
      vertex -209.705 53.505 89.8713
      vertex -180.139 53.505 95.0846
    endloop
  endfacet
  facet normal -0.17365 5.22372e-05 0.984807
    outer loop
      vertex -211.41 56.505 89.5705
      vertex -209.705 53.505 89.8713
      vertex -178.433 56.505 95.3853
    endloop
  endfacet
  facet normal -0.173692 2.76208e-05 0.9848
    outer loop
      vertex -227.899 27.505 86.6631
      vertex -209.705 53.505 89.8713
      vertex -211.41 56.505 89.5705
    endloop
  endfacet
  facet normal -0.173662 5.78317e-06 0.984805
    outer loop
      vertex -209.705 53.505 89.8713
      vertex -227.899 27.505 86.6631
      vertex -224.488 27.505 87.2646
    endloop
  endfacet
  facet normal -0.17364 -5.33923e-06 0.984809
    outer loop
      vertex -165.356 27.505 97.6912
      vertex -177.583 0 95.5352
      vertex -161.944 27.505 98.2928
    endloop
  endfacet
  facet normal -0.173622 -1.38755e-05 0.984812
    outer loop
      vertex -177.583 0 95.5352
      vertex -165.356 27.505 97.6912
      vertex -180.139 1.505 95.0846
    endloop
  endfacet
  facet normal -0.17364 5.33923e-06 0.984809
    outer loop
      vertex -177.583 0 95.5352
      vertex -165.356 -27.505 97.6912
      vertex -161.944 -27.505 98.2928
    endloop
  endfacet
  facet normal -0.173614 0 0.984814
    outer loop
      vertex -180.139 -1.505 95.0846
      vertex -177.583 0 95.5352
      vertex -180.139 1.505 95.0846
    endloop
  endfacet
  facet normal -0.173622 1.38755e-05 0.984812
    outer loop
      vertex -177.583 0 95.5352
      vertex -180.139 -1.505 95.0846
      vertex -165.356 -27.505 97.6912
    endloop
  endfacet
  facet normal -0.173649 0 0.984808
    outer loop
      vertex -209.705 1.505 89.8713
      vertex -180.139 -1.505 95.0846
      vertex -180.139 1.505 95.0846
    endloop
  endfacet
  facet normal -0.173649 0 0.984808
    outer loop
      vertex -209.705 1.505 89.8713
      vertex -209.705 -1.505 89.8713
      vertex -180.139 -1.505 95.0846
    endloop
  endfacet
  facet normal -0.173651 0 0.984807
    outer loop
      vertex -209.705 1.505 89.8713
      vertex -212.261 0 89.4206
      vertex -209.705 -1.505 89.8713
    endloop
  endfacet
  facet normal -0.173651 3.00867e-07 0.984807
    outer loop
      vertex -224.488 27.505 87.2646
      vertex -212.261 0 89.4206
      vertex -209.705 1.505 89.8713
    endloop
  endfacet
  facet normal -0.173662 -4.45589e-06 0.984805
    outer loop
      vertex -212.261 0 89.4206
      vertex -224.488 27.505 87.2646
      vertex -227.899 27.505 86.6631
    endloop
  endfacet
  facet normal -0.17364 -2.95736e-06 0.984809
    outer loop
      vertex -180.139 -53.505 95.0846
      vertex -161.944 -27.505 98.2928
      vertex -165.356 -27.505 97.6912
    endloop
  endfacet
  facet normal -0.173618 -1.94363e-05 0.984813
    outer loop
      vertex -161.944 -27.505 98.2928
      vertex -180.139 -53.505 95.0846
      vertex -178.433 -56.505 95.3853
    endloop
  endfacet
  facet normal -0.173649 -3.76789e-05 0.984808
    outer loop
      vertex -209.705 -53.505 89.8713
      vertex -178.433 -56.505 95.3853
      vertex -180.139 -53.505 95.0846
    endloop
  endfacet
  facet normal -0.17365 -5.22372e-05 0.984807
    outer loop
      vertex -209.705 -53.505 89.8713
      vertex -211.41 -56.505 89.5705
      vertex -178.433 -56.505 95.3853
    endloop
  endfacet
  facet normal -0.173662 -5.78317e-06 0.984805
    outer loop
      vertex -227.899 -27.505 86.6631
      vertex -209.705 -53.505 89.8713
      vertex -224.488 -27.505 87.2646
    endloop
  endfacet
  facet normal -0.173692 -2.76208e-05 0.9848
    outer loop
      vertex -209.705 -53.505 89.8713
      vertex -227.899 -27.505 86.6631
      vertex -211.41 -56.505 89.5705
    endloop
  endfacet
  facet normal -0.173651 -3.00867e-07 0.984807
    outer loop
      vertex -212.261 0 89.4206
      vertex -224.488 -27.505 87.2646
      vertex -209.705 -1.505 89.8713
    endloop
  endfacet
  facet normal -0.173662 4.45589e-06 0.984805
    outer loop
      vertex -224.488 -27.505 87.2646
      vertex -212.261 0 89.4206
      vertex -227.899 -27.505 86.6631
    endloop
  endfacet
  facet normal -0.852869 0.5 -0.150383
    outer loop
      vertex -227.899 -27.505 86.6631
      vertex -196.493 0 0
      vertex -212.618 -27.505 0
    endloop
  endfacet
  facet normal -0.852878 0.499982 -0.150392
    outer loop
      vertex -196.493 0 0
      vertex -227.899 -27.505 86.6631
      vertex -212.261 0 89.4206
    endloop
  endfacet
  facet normal 0 1 0
    outer loop
      vertex -165.379 -53.505 11.3759
      vertex -209.705 -53.505 89.8713
      vertex -180.139 -53.505 95.0846
    endloop
  endfacet
  facet normal 0 1 0
    outer loop
      vertex -209.705 -53.505 89.8713
      vertex -165.379 -53.505 11.3759
      vertex -194.945 -53.505 6.16261
    endloop
  endfacet
  facet normal -0.852855 0.500023 -0.15038
    outer loop
      vertex -180.139 -53.505 95.0846
      vertex -150.595 -27.505 13.9826
      vertex -165.379 -53.505 11.3759
    endloop
  endfacet
  facet normal -0.852868 0.499998 -0.150393
    outer loop
      vertex -150.595 -27.505 13.9826
      vertex -180.139 -53.505 95.0846
      vertex -165.356 -27.505 97.6912
    endloop
  endfacet
  facet normal -0.852855 -0.500023 -0.15038
    outer loop
      vertex -150.595 -27.505 13.9826
      vertex -180.139 -1.505 95.0846
      vertex -165.379 -1.505 11.3759
    endloop
  endfacet
  facet normal -0.852868 -0.499998 -0.150393
    outer loop
      vertex -180.139 -1.505 95.0846
      vertex -150.595 -27.505 13.9826
      vertex -165.356 -27.505 97.6912
    endloop
  endfacet
  facet normal 0.852869 0.499999 0.150383
    outer loop
      vertex -194.945 -53.505 6.16261
      vertex -224.488 -27.505 87.2646
      vertex -209.705 -53.505 89.8713
    endloop
  endfacet
  facet normal 0.852869 0.499999 0.150383
    outer loop
      vertex -224.488 -27.505 87.2646
      vertex -194.945 -53.505 6.16261
      vertex -209.728 -27.505 3.55596
    endloop
  endfacet
  facet normal -0.173647 -3.49394e-06 0.984808
    outer loop
      vertex -209.728 -27.505 3.55596
      vertex -150.595 -27.505 13.9826
      vertex -165.379 -1.505 11.3759
    endloop
  endfacet
  facet normal -0.173648 -1.89386e-07 0.984808
    outer loop
      vertex -209.728 -27.505 3.55596
      vertex -165.379 -1.505 11.3759
      vertex -194.945 -1.505 6.16261
    endloop
  endfacet
  facet normal -0.173647 3.49394e-06 0.984808
    outer loop
      vertex -150.595 -27.505 13.9826
      vertex -209.728 -27.505 3.55596
      vertex -165.379 -53.505 11.3759
    endloop
  endfacet
  facet normal -0.173648 1.89386e-07 0.984808
    outer loop
      vertex -165.379 -53.505 11.3759
      vertex -209.728 -27.505 3.55596
      vertex -194.945 -53.505 6.16261
    endloop
  endfacet
  facet normal 0 -1 0
    outer loop
      vertex -209.705 -1.505 89.8713
      vertex -165.379 -1.505 11.3759
      vertex -180.139 -1.505 95.0846
    endloop
  endfacet
  facet normal -0 -1 0
    outer loop
      vertex -165.379 -1.505 11.3759
      vertex -209.705 -1.505 89.8713
      vertex -194.945 -1.505 6.16261
    endloop
  endfacet
  facet normal 0.852869 -0.499999 0.150383
    outer loop
      vertex -224.488 -27.505 87.2646
      vertex -194.945 -1.505 6.16261
      vertex -209.705 -1.505 89.8713
    endloop
  endfacet
  facet normal 0.852869 -0.499999 0.150383
    outer loop
      vertex -194.945 -1.505 6.16261
      vertex -224.488 -27.505 87.2646
      vertex -209.728 -27.505 3.55596
    endloop
  endfacet
  facet normal 0.852871 -0.499998 0.15038
    outer loop
      vertex -16.8151 55.01 98.2928
      vertex -29.2957 30.4938 87.562
      vertex -15.3564 55.01 90.0199
    endloop
  endfacet
  facet normal 0.852869 -0.499999 0.150385
    outer loop
      vertex -32.4538 27.505 95.5352
      vertex -29.2957 30.4938 87.562
      vertex -16.8151 55.01 98.2928
    endloop
  endfacet
  facet normal 0.852866 -0.500005 0.150381
    outer loop
      vertex -29.2957 30.4938 87.562
      vertex -32.4538 27.505 95.5352
      vertex -30.9951 27.505 87.2624
    endloop
  endfacet
  facet normal 0.852868 0.5 0.150384
    outer loop
      vertex -33.3039 84.01 95.3853
      vertex -16.2064 56.505 89.87
      vertex -16.4849 84.01 0
    endloop
  endfacet
  facet normal 0.852868 0.500001 0.150383
    outer loop
      vertex -16.8151 55.01 98.2928
      vertex -16.2064 56.505 89.87
      vertex -33.3039 84.01 95.3853
    endloop
  endfacet
  facet normal 0.852875 0.49999 0.150381
    outer loop
      vertex -16.2064 56.505 89.87
      vertex -16.8151 55.01 98.2928
      vertex -15.3564 55.01 90.0199
    endloop
  endfacet
  facet normal 0.852868 0.500001 0.150384
    outer loop
      vertex -16.4849 84.01 0
      vertex -16.2064 56.505 89.87
      vertex -0.359874 56.505 0
    endloop
  endfacet
  facet normal 0 1 0
    outer loop
      vertex -50.4878 84.01 0
      vertex -33.3039 84.01 95.3853
      vertex -16.4849 84.01 0
    endloop
  endfacet
  facet normal 0 1 0
    outer loop
      vertex -33.3039 84.01 95.3853
      vertex -50.4878 84.01 0
      vertex -66.2815 84.01 89.5705
    endloop
  endfacet
  facet normal -0.852869 0.5 -0.150383
    outer loop
      vertex -81.9202 56.505 86.813
      vertex -50.4878 84.01 0
      vertex -66.6128 56.505 0
    endloop
  endfacet
  facet normal -0.852869 0.499998 -0.150384
    outer loop
      vertex -50.4878 84.01 0
      vertex -81.9202 56.505 86.813
      vertex -66.2815 84.01 89.5705
    endloop
  endfacet
  facet normal 0 1 0
    outer loop
      vertex -20.2495 29.01 11.3759
      vertex -64.5757 29.01 89.8713
      vertex -35.0096 29.01 95.0846
    endloop
  endfacet
  facet normal 0 1 0
    outer loop
      vertex -64.5757 29.01 89.8713
      vertex -20.2495 29.01 11.3759
      vertex -49.8156 29.01 6.16261
    endloop
  endfacet
  facet normal -0.852869 0.5 -0.150384
    outer loop
      vertex -35.0096 29.01 95.0846
      vertex -5.46646 55.01 13.9826
      vertex -20.2495 29.01 11.3759
    endloop
  endfacet
  facet normal -0.852869 0.499998 -0.150384
    outer loop
      vertex -5.46646 55.01 13.9826
      vertex -35.0096 29.01 95.0846
      vertex -20.2266 55.01 97.6912
    endloop
  endfacet
  facet normal -0.852869 -0.5 -0.150384
    outer loop
      vertex -5.46646 55.01 13.9826
      vertex -35.0096 81.01 95.0846
      vertex -20.2495 81.01 11.3759
    endloop
  endfacet
  facet normal -0.852869 -0.499998 -0.150384
    outer loop
      vertex -35.0096 81.01 95.0846
      vertex -5.46646 55.01 13.9826
      vertex -20.2266 55.01 97.6912
    endloop
  endfacet
  facet normal 0.852868 0.500001 0.150384
    outer loop
      vertex -49.8156 29.01 6.16261
      vertex -79.3588 55.01 87.2646
      vertex -64.5757 29.01 89.8713
    endloop
  endfacet
  facet normal 0.852868 0.500001 0.150384
    outer loop
      vertex -79.3588 55.01 87.2646
      vertex -49.8156 29.01 6.16261
      vertex -64.5987 55.01 3.55596
    endloop
  endfacet
  facet normal -0.173649 1.64866e-06 0.984808
    outer loop
      vertex -64.5987 55.01 3.55596
      vertex -5.46646 55.01 13.9826
      vertex -20.2495 81.01 11.3759
    endloop
  endfacet
  facet normal -0.173648 1.44552e-07 0.984808
    outer loop
      vertex -64.5987 55.01 3.55596
      vertex -20.2495 81.01 11.3759
      vertex -49.8156 81.01 6.16261
    endloop
  endfacet
  facet normal -0.173649 -1.64866e-06 0.984808
    outer loop
      vertex -5.46646 55.01 13.9826
      vertex -64.5987 55.01 3.55596
      vertex -20.2495 29.01 11.3759
    endloop
  endfacet
  facet normal -0.173648 -1.44552e-07 0.984808
    outer loop
      vertex -20.2495 29.01 11.3759
      vertex -64.5987 55.01 3.55596
      vertex -49.8156 29.01 6.16261
    endloop
  endfacet
  facet normal 0 -1 0
    outer loop
      vertex -64.5757 81.01 89.8713
      vertex -20.2495 81.01 11.3759
      vertex -35.0096 81.01 95.0846
    endloop
  endfacet
  facet normal -0 -1 0
    outer loop
      vertex -20.2495 81.01 11.3759
      vertex -64.5757 81.01 89.8713
      vertex -49.8156 81.01 6.16261
    endloop
  endfacet
  facet normal 0.852868 -0.500001 0.150384
    outer loop
      vertex -79.3588 55.01 87.2646
      vertex -49.8156 81.01 6.16261
      vertex -64.5757 81.01 89.8713
    endloop
  endfacet
  facet normal 0.852868 -0.500001 0.150384
    outer loop
      vertex -49.8156 81.01 6.16261
      vertex -79.3588 55.01 87.2646
      vertex -64.5987 55.01 3.55596
    endloop
  endfacet
  facet normal 0.852869 -0.500001 0.15038
    outer loop
      vertex -80.8302 0 95.5352
      vertex -63.7327 27.505 90.0199
      vertex -65.1914 27.505 98.2928
    endloop
  endfacet
  facet normal 0.852868 -0.500001 0.150382
    outer loop
      vertex -63.7327 27.505 90.0199
      vertex -80.8302 0 95.5352
      vertex -79.3715 0 87.2624
    endloop
  endfacet
  facet normal 0.852869 0.500001 0.15038
    outer loop
      vertex -63.7327 27.505 90.0199
      vertex -81.6802 56.505 95.3853
      vertex -65.1914 27.505 98.2928
    endloop
  endfacet
  facet normal 0.852869 0.5 0.150382
    outer loop
      vertex -81.6802 56.505 95.3853
      vertex -63.7327 27.505 90.0199
      vertex -80.2215 56.505 87.1125
    endloop
  endfacet
  facet normal 0 1 0
    outer loop
      vertex -81.9202 56.505 86.813
      vertex -81.6802 56.505 95.3853
      vertex -80.2215 56.505 87.1125
    endloop
  endfacet
  facet normal 0 1 0
    outer loop
      vertex -81.6802 56.505 95.3853
      vertex -81.9202 56.505 86.813
      vertex -112.959 56.505 89.87
    endloop
  endfacet
  facet normal 0 1 0
    outer loop
      vertex -97.1126 56.505 0
      vertex -81.9202 56.505 86.813
      vertex -66.6128 56.505 0
    endloop
  endfacet
  facet normal 0 1 0
    outer loop
      vertex -81.9202 56.505 86.813
      vertex -97.1126 56.505 0
      vertex -112.959 56.505 89.87
    endloop
  endfacet
  facet normal 0 1 0
    outer loop
      vertex -68.6259 1.505 11.3759
      vertex -112.952 1.505 89.8713
      vertex -83.386 1.505 95.0846
    endloop
  endfacet
  facet normal 0 1 0
    outer loop
      vertex -112.952 1.505 89.8713
      vertex -68.6259 1.505 11.3759
      vertex -98.192 1.505 6.16261
    endloop
  endfacet
  facet normal -0.852868 0.500001 -0.150384
    outer loop
      vertex -83.386 1.505 95.0846
      vertex -53.8428 27.505 13.9826
      vertex -68.6259 1.505 11.3759
    endloop
  endfacet
  facet normal -0.852868 0.500001 -0.150384
    outer loop
      vertex -53.8428 27.505 13.9826
      vertex -83.386 1.505 95.0846
      vertex -68.6029 27.505 97.6912
    endloop
  endfacet
  facet normal -0.852868 -0.500001 -0.150384
    outer loop
      vertex -53.8428 27.505 13.9826
      vertex -83.386 53.505 95.0846
      vertex -68.6259 53.505 11.3759
    endloop
  endfacet
  facet normal -0.852868 -0.500001 -0.150384
    outer loop
      vertex -83.386 53.505 95.0846
      vertex -53.8428 27.505 13.9826
      vertex -68.6029 27.505 97.6912
    endloop
  endfacet
  facet normal 0.852869 0.499999 0.150383
    outer loop
      vertex -98.192 1.505 6.16261
      vertex -127.735 27.505 87.2646
      vertex -112.952 1.505 89.8713
    endloop
  endfacet
  facet normal 0.852869 0.499999 0.150383
    outer loop
      vertex -127.735 27.505 87.2646
      vertex -98.192 1.505 6.16261
      vertex -112.975 27.505 3.55596
    endloop
  endfacet
  facet normal -0.173649 1.18115e-06 0.984808
    outer loop
      vertex -112.975 27.505 3.55596
      vertex -53.8428 27.505 13.9826
      vertex -68.6259 53.505 11.3759
    endloop
  endfacet
  facet normal -0.173648 -5.23324e-07 0.984808
    outer loop
      vertex -112.975 27.505 3.55596
      vertex -68.6259 53.505 11.3759
      vertex -98.192 53.505 6.16261
    endloop
  endfacet
  facet normal -0.173649 -1.18115e-06 0.984808
    outer loop
      vertex -53.8428 27.505 13.9826
      vertex -112.975 27.505 3.55596
      vertex -68.6259 1.505 11.3759
    endloop
  endfacet
  facet normal -0.173648 5.23324e-07 0.984808
    outer loop
      vertex -68.6259 1.505 11.3759
      vertex -112.975 27.505 3.55596
      vertex -98.192 1.505 6.16261
    endloop
  endfacet
  facet normal 0 -1 0
    outer loop
      vertex -112.952 53.505 89.8713
      vertex -68.6259 53.505 11.3759
      vertex -83.386 53.505 95.0846
    endloop
  endfacet
  facet normal -0 -1 0
    outer loop
      vertex -68.6259 53.505 11.3759
      vertex -112.952 53.505 89.8713
      vertex -98.192 53.505 6.16261
    endloop
  endfacet
  facet normal 0.852869 -0.499999 0.150383
    outer loop
      vertex -127.735 27.505 87.2646
      vertex -98.192 53.505 6.16261
      vertex -112.952 53.505 89.8713
    endloop
  endfacet
  facet normal 0.852869 -0.499999 0.150383
    outer loop
      vertex -98.192 53.505 6.16261
      vertex -127.735 27.505 87.2646
      vertex -112.975 27.505 3.55596
    endloop
  endfacet
  facet normal 0.852861 -0.500006 0.15041
    outer loop
      vertex -129.207 27.505 95.5352
      vertex -112.109 55.01 90.0199
      vertex -113.568 55.01 98.2928
    endloop
  endfacet
  facet normal 0.852861 -0.500005 0.150411
    outer loop
      vertex -112.109 55.01 90.0199
      vertex -129.207 27.505 95.5352
      vertex -127.748 27.505 87.2624
    endloop
  endfacet
  facet normal 0.852862 0.500012 0.150383
    outer loop
      vertex -130.057 84.01 95.3853
      vertex -112.959 56.505 89.87
      vertex -113.238 84.01 0
    endloop
  endfacet
  facet normal 0.85286 0.500005 0.150413
    outer loop
      vertex -113.568 55.01 98.2928
      vertex -112.959 56.505 89.87
      vertex -130.057 84.01 95.3853
    endloop
  endfacet
  facet normal 0.852869 0.49999 0.150411
    outer loop
      vertex -112.959 56.505 89.87
      vertex -113.568 55.01 98.2928
      vertex -112.109 55.01 90.0199
    endloop
  endfacet
  facet normal 0.852863 0.50001 0.150382
    outer loop
      vertex -113.238 84.01 0
      vertex -112.959 56.505 89.87
      vertex -97.1126 56.505 0
    endloop
  endfacet
  facet normal 0 1 0
    outer loop
      vertex -147.24 84.01 0
      vertex -130.057 84.01 95.3853
      vertex -113.238 84.01 0
    endloop
  endfacet
  facet normal 0 1 0
    outer loop
      vertex -130.057 84.01 95.3853
      vertex -147.24 84.01 0
      vertex -163.034 84.01 89.5705
    endloop
  endfacet
  facet normal -0.852868 0.5 -0.150389
    outer loop
      vertex -178.673 56.505 86.813
      vertex -147.24 84.01 0
      vertex -163.365 56.505 0
    endloop
  endfacet
  facet normal -0.852865 0.500005 -0.150386
    outer loop
      vertex -147.24 84.01 0
      vertex -178.673 56.505 86.813
      vertex -163.034 84.01 89.5705
    endloop
  endfacet
  facet normal 0 1 0
    outer loop
      vertex -117.002 29.01 11.3759
      vertex -161.328 29.01 89.8713
      vertex -131.762 29.01 95.0846
    endloop
  endfacet
  facet normal 0 1 0
    outer loop
      vertex -161.328 29.01 89.8713
      vertex -117.002 29.01 11.3759
      vertex -146.568 29.01 6.16261
    endloop
  endfacet
  facet normal -0.852869 0.499999 -0.150383
    outer loop
      vertex -131.762 29.01 95.0846
      vertex -102.219 55.01 13.9826
      vertex -117.002 29.01 11.3759
    endloop
  endfacet
  facet normal -0.85287 0.499998 -0.150383
    outer loop
      vertex -102.219 55.01 13.9826
      vertex -131.762 29.01 95.0846
      vertex -116.979 55.01 97.6912
    endloop
  endfacet
  facet normal -0.852869 -0.499999 -0.150383
    outer loop
      vertex -102.219 55.01 13.9826
      vertex -131.762 81.01 95.0846
      vertex -117.002 81.01 11.3759
    endloop
  endfacet
  facet normal -0.85287 -0.499998 -0.150383
    outer loop
      vertex -131.762 81.01 95.0846
      vertex -102.219 55.01 13.9826
      vertex -116.979 55.01 97.6912
    endloop
  endfacet
  facet normal 0.852869 0.499999 0.150383
    outer loop
      vertex -146.568 29.01 6.16261
      vertex -176.111 55.01 87.2646
      vertex -161.328 29.01 89.8713
    endloop
  endfacet
  facet normal 0.852869 0.499999 0.150383
    outer loop
      vertex -176.111 55.01 87.2646
      vertex -146.568 29.01 6.16261
      vertex -161.351 55.01 3.55596
    endloop
  endfacet
  facet normal -0.173649 1.51509e-06 0.984808
    outer loop
      vertex -161.351 55.01 3.55596
      vertex -102.219 55.01 13.9826
      vertex -117.002 81.01 11.3759
    endloop
  endfacet
  facet normal -0.173648 -1.89386e-07 0.984808
    outer loop
      vertex -161.351 55.01 3.55596
      vertex -117.002 81.01 11.3759
      vertex -146.568 81.01 6.16261
    endloop
  endfacet
  facet normal -0.173649 -1.51509e-06 0.984808
    outer loop
      vertex -102.219 55.01 13.9826
      vertex -161.351 55.01 3.55596
      vertex -117.002 29.01 11.3759
    endloop
  endfacet
  facet normal -0.173648 1.89386e-07 0.984808
    outer loop
      vertex -117.002 29.01 11.3759
      vertex -161.351 55.01 3.55596
      vertex -146.568 29.01 6.16261
    endloop
  endfacet
  facet normal 0 -1 0
    outer loop
      vertex -161.328 81.01 89.8713
      vertex -117.002 81.01 11.3759
      vertex -131.762 81.01 95.0846
    endloop
  endfacet
  facet normal -0 -1 0
    outer loop
      vertex -117.002 81.01 11.3759
      vertex -161.328 81.01 89.8713
      vertex -146.568 81.01 6.16261
    endloop
  endfacet
  facet normal 0.852869 -0.499999 0.150383
    outer loop
      vertex -176.111 55.01 87.2646
      vertex -146.568 81.01 6.16261
      vertex -161.328 81.01 89.8713
    endloop
  endfacet
  facet normal 0.852869 -0.499999 0.150383
    outer loop
      vertex -146.568 81.01 6.16261
      vertex -176.111 55.01 87.2646
      vertex -161.351 55.01 3.55596
    endloop
  endfacet
  facet normal 0.852861 -0.500006 0.15041
    outer loop
      vertex -177.583 0 95.5352
      vertex -160.485 27.505 90.0199
      vertex -161.944 27.505 98.2928
    endloop
  endfacet
  facet normal 0.852861 -0.500005 0.150411
    outer loop
      vertex -160.485 27.505 90.0199
      vertex -177.583 0 95.5352
      vertex -176.124 0 87.2624
    endloop
  endfacet
  facet normal 0.852861 0.500005 0.15041
    outer loop
      vertex -160.485 27.505 90.0199
      vertex -178.433 56.505 95.3853
      vertex -161.944 27.505 98.2928
    endloop
  endfacet
  facet normal 0.852861 0.500005 0.150411
    outer loop
      vertex -178.433 56.505 95.3853
      vertex -160.485 27.505 90.0199
      vertex -176.974 56.505 87.1125
    endloop
  endfacet
  facet normal -0.852869 -0.5 -0.150383
    outer loop
      vertex -196.493 0 0
      vertex -227.899 27.505 86.6631
      vertex -212.618 27.505 0
    endloop
  endfacet
  facet normal -0.852878 -0.499982 -0.150392
    outer loop
      vertex -227.899 27.505 86.6631
      vertex -196.493 0 0
      vertex -212.261 0 89.4206
    endloop
  endfacet
  facet normal 0 1 0
    outer loop
      vertex -178.673 56.505 86.813
      vertex -178.433 56.505 95.3853
      vertex -176.974 56.505 87.1125
    endloop
  endfacet
  facet normal 0 1 0
    outer loop
      vertex -178.433 56.505 95.3853
      vertex -178.673 56.505 86.813
      vertex -211.41 56.505 89.5705
    endloop
  endfacet
  facet normal 0 1 0
    outer loop
      vertex -195.617 56.505 0
      vertex -178.673 56.505 86.813
      vertex -163.365 56.505 0
    endloop
  endfacet
  facet normal 0 1 0
    outer loop
      vertex -178.673 56.505 86.813
      vertex -195.617 56.505 0
      vertex -211.41 56.505 89.5705
    endloop
  endfacet
  facet normal -0.852874 0.49999 -0.150384
    outer loop
      vertex -227.899 27.505 86.6631
      vertex -195.617 56.505 0
      vertex -212.618 27.505 0
    endloop
  endfacet
  facet normal -0.852867 0.500005 -0.150377
    outer loop
      vertex -195.617 56.505 0
      vertex -227.899 27.505 86.6631
      vertex -211.41 56.505 89.5705
    endloop
  endfacet
  facet normal 0 1 0
    outer loop
      vertex -165.379 1.505 11.3759
      vertex -209.705 1.505 89.8713
      vertex -180.139 1.505 95.0846
    endloop
  endfacet
  facet normal 0 1 0
    outer loop
      vertex -209.705 1.505 89.8713
      vertex -165.379 1.505 11.3759
      vertex -194.945 1.505 6.16261
    endloop
  endfacet
  facet normal -0.852855 0.500023 -0.15038
    outer loop
      vertex -180.139 1.505 95.0846
      vertex -150.595 27.505 13.9826
      vertex -165.379 1.505 11.3759
    endloop
  endfacet
  facet normal -0.852868 0.499998 -0.150393
    outer loop
      vertex -150.595 27.505 13.9826
      vertex -180.139 1.505 95.0846
      vertex -165.356 27.505 97.6912
    endloop
  endfacet
  facet normal -0.852855 -0.500023 -0.15038
    outer loop
      vertex -150.595 27.505 13.9826
      vertex -180.139 53.505 95.0846
      vertex -165.379 53.505 11.3759
    endloop
  endfacet
  facet normal -0.852868 -0.499998 -0.150393
    outer loop
      vertex -180.139 53.505 95.0846
      vertex -150.595 27.505 13.9826
      vertex -165.356 27.505 97.6912
    endloop
  endfacet
  facet normal 0.852869 0.499999 0.150383
    outer loop
      vertex -194.945 1.505 6.16261
      vertex -224.488 27.505 87.2646
      vertex -209.705 1.505 89.8713
    endloop
  endfacet
  facet normal 0.852869 0.499999 0.150383
    outer loop
      vertex -224.488 27.505 87.2646
      vertex -194.945 1.505 6.16261
      vertex -209.728 27.505 3.55596
    endloop
  endfacet
  facet normal -0.173647 -3.49394e-06 0.984808
    outer loop
      vertex -209.728 27.505 3.55596
      vertex -150.595 27.505 13.9826
      vertex -165.379 53.505 11.3759
    endloop
  endfacet
  facet normal -0.173648 -1.89386e-07 0.984808
    outer loop
      vertex -209.728 27.505 3.55596
      vertex -165.379 53.505 11.3759
      vertex -194.945 53.505 6.16261
    endloop
  endfacet
  facet normal -0.173647 3.49394e-06 0.984808
    outer loop
      vertex -150.595 27.505 13.9826
      vertex -209.728 27.505 3.55596
      vertex -165.379 1.505 11.3759
    endloop
  endfacet
  facet normal -0.173648 1.89386e-07 0.984808
    outer loop
      vertex -165.379 1.505 11.3759
      vertex -209.728 27.505 3.55596
      vertex -194.945 1.505 6.16261
    endloop
  endfacet
  facet normal 0 -1 0
    outer loop
      vertex -209.705 53.505 89.8713
      vertex -165.379 53.505 11.3759
      vertex -180.139 53.505 95.0846
    endloop
  endfacet
  facet normal -0 -1 0
    outer loop
      vertex -165.379 53.505 11.3759
      vertex -209.705 53.505 89.8713
      vertex -194.945 53.505 6.16261
    endloop
  endfacet
  facet normal 0.852869 -0.499999 0.150383
    outer loop
      vertex -224.488 27.505 87.2646
      vertex -194.945 53.505 6.16261
      vertex -209.705 53.505 89.8713
    endloop
  endfacet
  facet normal 0.852869 -0.499999 0.150383
    outer loop
      vertex -194.945 53.505 6.16261
      vertex -224.488 27.505 87.2646
      vertex -209.728 27.505 3.55596
    endloop
  endfacet
  facet normal -0.852868 -0.5 -0.150384
    outer loop
      vertex -18.2364 -29 0
      vertex -9.27124 -44.2922 0
      vertex -32.1566 -29 78.9452
    endloop
  endfacet
  facet normal -0.173651 0 0.984807
    outer loop
      vertex 0 -47.6687 92.7277
      vertex -17.9051 -56.505 89.5705
      vertex 0 -56.505 92.7277
    endloop
  endfacet
  facet normal -0.17365 -2.36026e-06 0.984808
    outer loop
      vertex -31.8448 -28.9994 87.1126
      vertex -17.9051 -56.505 89.5705
      vertex 0 -47.6687 92.7277
    endloop
  endfacet
  facet normal -0.21312 -0.0207209 0.976806
    outer loop
      vertex -31.8452 -29 87.1125
      vertex -17.9051 -56.505 89.5705
      vertex -31.8448 -28.9994 87.1126
    endloop
  endfacet
  facet normal -0.173633 7.26445e-06 0.98481
    outer loop
      vertex -17.9051 -56.505 89.5705
      vertex -31.8452 -29 87.1125
      vertex -33.5439 -29 86.813
    endloop
  endfacet
  facet normal -0.173651 0 0.984807
    outer loop
      vertex 0 47.6687 92.7277
      vertex -29.2957 24.5162 87.562
      vertex 0 7.34134 92.7277
    endloop
  endfacet
  facet normal -0.173651 0 0.984807
    outer loop
      vertex -29.2957 30.4938 87.562
      vertex -29.2957 24.5162 87.562
      vertex 0 47.6687 92.7277
    endloop
  endfacet
  facet normal -0.17362 0 0.984813
    outer loop
      vertex -29.2957 24.5162 87.562
      vertex -29.2957 30.4938 87.562
      vertex -30.9951 27.505 87.2624
    endloop
  endfacet
  facet normal -0.173651 0 0.984807
    outer loop
      vertex -29.2957 -24.5162 87.562
      vertex 0 -47.6687 92.7277
      vertex 0 -7.34134 92.7277
    endloop
  endfacet
  facet normal -0.173641 1.24075e-05 0.984809
    outer loop
      vertex 0 -47.6687 92.7277
      vertex -29.2957 -24.5162 87.562
      vertex -31.8448 -28.9994 87.1126
    endloop
  endfacet
  facet normal -0.852869 -0.499999 -0.150384
    outer loop
      vertex -2.11142 -56.505 0
      vertex -32.1566 -29 78.9452
      vertex -9.27124 -44.2922 0
    endloop
  endfacet
  facet normal -0.852868 -0.500001 -0.150384
    outer loop
      vertex -32.1566 -29 78.9452
      vertex -2.11142 -56.505 0
      vertex -17.9051 -56.505 89.5705
    endloop
  endfacet
  facet normal -0.852868 -0.500001 -0.150383
    outer loop
      vertex -32.1566 -29 78.9452
      vertex -17.9051 -56.505 89.5705
      vertex -33.5439 -29 86.813
    endloop
  endfacet
  facet normal 0 -1 0
    outer loop
      vertex -2.11142 -56.505 0
      vertex 0 -56.505 92.7277
      vertex -17.9051 -56.505 89.5705
    endloop
  endfacet
  facet normal 0 -1 -0
    outer loop
      vertex 0 -56.505 92.7277
      vertex -2.11142 -56.505 0
      vertex 0 -56.505 0
    endloop
  endfacet
  facet normal -0.173651 0 0.984807
    outer loop
      vertex -15.3564 0 90.0199
      vertex 0 -7.34134 92.7277
      vertex 0 0 92.7277
    endloop
  endfacet
  facet normal -0.173651 7.01316e-07 0.984807
    outer loop
      vertex 0 -7.34134 92.7277
      vertex -15.3564 0 90.0199
      vertex -29.2957 -24.5162 87.562
    endloop
  endfacet
  facet normal -0.173651 0 0.984807
    outer loop
      vertex 0 7.34134 92.7277
      vertex -15.3564 0 90.0199
      vertex 0 0 92.7277
    endloop
  endfacet
  facet normal -0.173651 -7.01316e-07 0.984807
    outer loop
      vertex -15.3564 0 90.0199
      vertex 0 7.34134 92.7277
      vertex -29.2957 24.5162 87.562
    endloop
  endfacet
  facet normal -0.173651 0 0.984807
    outer loop
      vertex 0 56.505 92.7277
      vertex -15.3564 55.01 90.0199
      vertex 0 47.6687 92.7277
    endloop
  endfacet
  facet normal -0.173653 1.19647e-05 0.984807
    outer loop
      vertex -15.3564 55.01 90.0199
      vertex 0 56.505 92.7277
      vertex -16.2064 56.505 89.87
    endloop
  endfacet
  facet normal -0.173651 7.01317e-07 0.984807
    outer loop
      vertex 0 47.6687 92.7277
      vertex -15.3564 55.01 90.0199
      vertex -29.2957 30.4938 87.562
    endloop
  endfacet
  facet normal 0 1 -0
    outer loop
      vertex 0 56.505 0
      vertex -16.2064 56.505 89.87
      vertex 0 56.505 92.7277
    endloop
  endfacet
  facet normal 0 1 0
    outer loop
      vertex -16.2064 56.505 89.87
      vertex 0 56.505 0
      vertex -0.359874 56.505 0
    endloop
  endfacet
  facet normal 1 -0 0
    outer loop
      vertex 0 47.6687 92.7277
      vertex 0 56.505 0
      vertex 0 56.505 92.7277
    endloop
  endfacet
  facet normal 1 -0 0
    outer loop
      vertex 0 7.34134 92.7277
      vertex 0 56.505 0
      vertex 0 47.6687 92.7277
    endloop
  endfacet
  facet normal 1 -0 0
    outer loop
      vertex 0 0 92.7277
      vertex 0 56.505 0
      vertex 0 7.34134 92.7277
    endloop
  endfacet
  facet normal 1 0 0
    outer loop
      vertex 0 -56.505 0
      vertex 0 0 92.7277
      vertex 0 -7.34134 92.7277
    endloop
  endfacet
  facet normal 1 0 0
    outer loop
      vertex 0 -56.505 0
      vertex 0 -7.34134 92.7277
      vertex 0 -47.6687 92.7277
    endloop
  endfacet
  facet normal 1 0 0
    outer loop
      vertex 0 -56.505 0
      vertex 0 -47.6687 92.7277
      vertex 0 -56.505 92.7277
    endloop
  endfacet
  facet normal 1 0 0
    outer loop
      vertex 0 0 92.7277
      vertex 0 -56.505 0
      vertex 0 56.505 0
    endloop
  endfacet
  facet normal 0 0 -1
    outer loop
      vertex -9.27124 -44.2922 0
      vertex 0 56.505 0
      vertex 0 -56.505 0
    endloop
  endfacet
  facet normal 0 0 -1
    outer loop
      vertex -9.27124 -44.2922 0
      vertex 0 -56.505 0
      vertex -2.11142 -56.505 0
    endloop
  endfacet
  facet normal 0 0 -1
    outer loop
      vertex -18.2364 -29 0
      vertex 0 56.505 0
      vertex -9.27124 -44.2922 0
    endloop
  endfacet
  facet normal -0 0 -1
    outer loop
      vertex 0 56.505 0
      vertex -18.2364 -29 0
      vertex -0.359874 56.505 0
    endloop
  endfacet
  facet normal 0 0 -1
    outer loop
      vertex -66.6128 56.505 0
      vertex -0.359874 56.505 0
      vertex -18.2364 -29 0
    endloop
  endfacet
  facet normal 0 0 -1
    outer loop
      vertex -66.6128 56.505 0
      vertex -18.2364 -29 0
      vertex -48.7362 -29 0
    endloop
  endfacet
  facet normal 0 0 -1
    outer loop
      vertex -0.359874 56.505 0
      vertex -66.6128 56.505 0
      vertex -16.4849 84.01 0
    endloop
  endfacet
  facet normal 0 0 -1
    outer loop
      vertex -114.989 -29 0
      vertex -48.7362 -29 0
      vertex -64.8612 -56.505 0
    endloop
  endfacet
  facet normal -0 0 -1
    outer loop
      vertex -16.4849 84.01 0
      vertex -66.6128 56.505 0
      vertex -50.4878 84.01 0
    endloop
  endfacet
  facet normal 0 0 -1
    outer loop
      vertex -48.7362 -29 0
      vertex -114.989 -29 0
      vertex -66.6128 56.505 0
    endloop
  endfacet
  facet normal 0 0 -1
    outer loop
      vertex -114.989 -29 0
      vertex -64.8612 -56.505 0
      vertex -98.8641 -56.505 0
    endloop
  endfacet
  facet normal -0 0 -1
    outer loop
      vertex -66.6128 56.505 0
      vertex -114.989 -29 0
      vertex -97.1126 56.505 0
    endloop
  endfacet
  facet normal 0 0 -1
    outer loop
      vertex -163.365 56.505 0
      vertex -97.1126 56.505 0
      vertex -114.989 -29 0
    endloop
  endfacet
  facet normal 0 0 -1
    outer loop
      vertex -163.365 56.505 0
      vertex -114.989 -29 0
      vertex -145.489 -29 0
    endloop
  endfacet
  facet normal 0 0 -1
    outer loop
      vertex -97.1126 56.505 0
      vertex -163.365 56.505 0
      vertex -113.238 84.01 0
    endloop
  endfacet
  facet normal 0 0 -1
    outer loop
      vertex -196.493 0 0
      vertex -145.489 -29 0
      vertex -161.614 -56.505 0
    endloop
  endfacet
  facet normal -0 0 -1
    outer loop
      vertex -113.238 84.01 0
      vertex -163.365 56.505 0
      vertex -147.24 84.01 0
    endloop
  endfacet
  facet normal 0 0 -1
    outer loop
      vertex -196.493 0 0
      vertex -161.614 -56.505 0
      vertex -195.617 -56.505 0
    endloop
  endfacet
  facet normal 0 0 -1
    outer loop
      vertex -145.489 -29 0
      vertex -196.493 0 0
      vertex -163.365 56.505 0
    endloop
  endfacet
  facet normal -0 0 -1
    outer loop
      vertex -163.365 56.505 0
      vertex -196.493 0 0
      vertex -195.617 56.505 0
    endloop
  endfacet
  facet normal 0 -0 -1
    outer loop
      vertex -196.493 0 0
      vertex -195.617 -56.505 0
      vertex -212.618 -27.505 0
    endloop
  endfacet
  facet normal 0 0 -1
    outer loop
      vertex -195.617 56.505 0
      vertex -196.493 0 0
      vertex -212.618 27.505 0
    endloop
  endfacet
endsolid OpenSCAD_Model
